<?xml version="1.0" standalone="no"?>
<!DOCTYPE svg PUBLIC "-//W3C//DTD SVG 20010904//EN"
 "http://www.w3.org/TR/2001/REC-SVG-20010904/DTD/svg10.dtd">
<svg version="1.0" xmlns="http://www.w3.org/2000/svg"
 width="984.000000pt" height="984.000000pt" viewBox="0 0 984.000000 984.000000"
 preserveAspectRatio="xMidYMid meet">
<metadata>
Created by potrace 1.11, written by Peter Selinger 2001-2013
</metadata>
<g transform="translate(0.000000,984.000000) scale(0.100000,-0.100000)"
fill="#000000" stroke="none">
<path d="M4689 9746 c-2 -2 -53 -7 -114 -11 -60 -4 -112 -8 -115 -10 -3 -2
-36 -6 -75 -9 -205 -18 -602 -96 -765 -150 -8 -2 -76 -23 -150 -47 -214 -66
-447 -161 -685 -280 -121 -60 -229 -115 -240 -122 -405 -240 -718 -480 -1010
-772 -542 -542 -923 -1156 -1165 -1875 -56 -166 -66 -200 -109 -365 -19 -69
-66 -292 -75 -350 -2 -16 -9 -59 -14 -95 -40 -248 -55 -451 -55 -725 0 -176 8
-371 18 -455 5 -35 10 -79 20 -175 9 -75 54 -329 75 -420 10 -45 21 -92 24
-105 31 -146 165 -553 225 -685 5 -11 26 -58 47 -105 246 -567 595 -1067 1069
-1531 50 -48 108 -103 130 -121 22 -18 58 -49 80 -69 166 -148 489 -376 730
-516 129 -75 536 -273 561 -273 3 0 20 -6 37 -14 216 -97 694 -234 961 -276
38 -6 72 -13 76 -15 3 -2 40 -7 81 -11 40 -3 76 -8 80 -10 3 -1 39 -6 80 -9
40 -4 90 -8 109 -11 195 -22 654 -22 850 2 35 4 189 23 245 30 304 38 681 134
1000 256 727 276 1315 670 1850 1239 135 143 262 298 365 444 14 20 39 55 55
78 191 263 414 686 550 1042 73 189 194 611 219 760 3 17 12 71 21 120 22 124
31 186 41 285 3 36 8 67 10 70 8 15 19 289 18 480 -1 191 -9 410 -19 458 -1 9
-6 46 -10 82 -6 60 -39 282 -50 340 -22 117 -63 292 -85 370 -12 41 -28 98
-35 125 -34 123 -137 404 -189 517 -14 31 -26 60 -26 63 0 12 -158 322 -217
426 -139 244 -330 517 -503 719 -30 35 -68 80 -85 100 -66 77 -346 352 -445
436 -486 415 -994 707 -1585 911 -71 24 -152 50 -180 58 -27 8 -81 23 -120 35
-67 19 -267 68 -310 75 -11 1 -63 10 -115 19 -52 9 -106 19 -120 21 -14 3 -52
7 -85 11 -33 3 -65 7 -72 9 -7 2 -45 7 -85 10 -40 4 -89 9 -108 12 -41 5 -606
14 -611 9z"/>
</g>
</svg>
